<svg width="18" height="18" viewBox="0 0 18 18" fill="none" xmlns="http://www.w3.org/2000/svg">
<path d="M9 11C8.45 11 7.97934 10.8043 7.588 10.413C7.19667 10.0217 7.00067 9.55067 7 9C6.99934 8.44934 7.19534 7.97867 7.588 7.588C7.98067 7.19734 8.45134 7.00134 9 7C9.54867 6.99867 10.0197 7.19467 10.413 7.588C10.8063 7.98134 11.002 8.452 11 9C10.998 9.548 10.8023 10.019 10.413 10.413C10.0237 10.807 9.55267 11.0027 9 11ZM8 4V1C8 0.71667 8.096 0.479337 8.288 0.288004C8.48 0.0966702 8.71734 0.000670115 9 3.44827e-06C9.28267 -0.000663218 9.52034 0.0953369 9.713 0.288004C9.90567 0.48067 10.0013 0.718003 10 1V4C10 4.28334 9.904 4.521 9.712 4.713C9.52 4.905 9.28267 5.00067 9 5C8.71734 4.99934 8.48 4.90334 8.288 4.712C8.096 4.52067 8 4.28334 8 4ZM8 17V14C8 13.7167 8.096 13.4793 8.288 13.288C8.48 13.0967 8.71734 13.0007 9 13C9.28267 12.9993 9.52034 13.0953 9.713 13.288C9.90567 13.4807 10.0013 13.718 10 14V17C10 17.2833 9.904 17.521 9.712 17.713C9.52 17.905 9.28267 18.0007 9 18C8.71734 17.9993 8.48 17.9033 8.288 17.712C8.096 17.5207 8 17.2833 8 17ZM14 8H17C17.2833 8 17.521 8.096 17.713 8.288C17.905 8.48 18.0007 8.71734 18 9C17.9993 9.28267 17.9033 9.52034 17.712 9.713C17.5207 9.90567 17.2833 10.0013 17 10H14C13.7167 10 13.4793 9.904 13.288 9.712C13.0967 9.52 13.0007 9.28267 13 9C12.9993 8.71734 13.0953 8.48 13.288 8.288C13.4807 8.096 13.718 8 14 8ZM1 8H4C4.28334 8 4.521 8.096 4.713 8.288C4.905 8.48 5.00067 8.71734 5 9C4.99934 9.28267 4.90334 9.52034 4.712 9.713C4.52067 9.90567 4.28334 10.0013 4 10H1C0.71667 10 0.479337 9.904 0.288004 9.712C0.0966702 9.52 0.000670115 9.28267 3.44827e-06 9C-0.000663218 8.71734 0.0953369 8.48 0.288004 8.288C0.48067 8.096 0.718003 8 1 8Z" fill="black"/>
</svg>
