<svg width="14" height="14" viewBox="0 0 14 14" fill="none" xmlns="http://www.w3.org/2000/svg">
<path fill-rule="evenodd" clip-rule="evenodd" d="M10.4999 6.00002C10.4999 6.59097 10.3835 7.17613 10.1574 7.72209C9.93121 8.26806 9.59974 8.76414 9.18188 9.182C8.76401 9.59986 8.26794 9.93133 7.72197 10.1575C7.17601 10.3836 6.59085 10.5 5.9999 10.5C5.40895 10.5 4.82379 10.3836 4.27782 10.1575C3.73186 9.93133 3.23578 9.59986 2.81792 9.182C2.40005 8.76414 2.06859 8.26806 1.84244 7.72209C1.61629 7.17613 1.4999 6.59097 1.4999 6.00002C1.4999 4.80654 1.974 3.66195 2.81792 2.81804C3.66183 1.97413 4.80642 1.50002 5.9999 1.50002C7.19337 1.50002 8.33796 1.97413 9.18188 2.81804C10.0258 3.66195 10.4999 4.80654 10.4999 6.00002ZM9.6799 10.74C8.47427 11.676 6.95726 12.1173 5.4377 11.9742C3.91813 11.831 2.51024 11.1141 1.50065 9.96942C0.491052 8.82473 -0.0443519 7.33832 0.00343225 5.81277C0.0512164 4.28722 0.678596 2.83723 1.75785 1.75797C2.8371 0.678718 4.2871 0.0513384 5.81265 0.00355432C7.3382 -0.0442298 8.82461 0.491174 9.96929 1.50077C11.114 2.51036 11.8309 3.91825 11.974 5.43782C12.1172 6.95739 11.6759 8.4744 10.7399 9.68002L13.5299 12.47C13.6036 12.5387 13.6627 12.6215 13.7037 12.7135C13.7447 12.8055 13.7667 12.9048 13.7685 13.0055C13.7703 13.1062 13.7517 13.2062 13.714 13.2996C13.6763 13.393 13.6202 13.4778 13.5489 13.5491C13.4777 13.6203 13.3929 13.6764 13.2995 13.7141C13.2061 13.7519 13.1061 13.7704 13.0054 13.7686C12.9047 13.7668 12.8054 13.7448 12.7134 13.7038C12.6214 13.6628 12.5386 13.6037 12.4699 13.53L9.6799 10.74Z" fill="black"/>
</svg>
