<svg width="16" height="20" viewBox="0 0 16 20" fill="none" xmlns="http://www.w3.org/2000/svg">
<path d="M8 0.5C12.1372 0.5 15.5 3.74248 15.5 8C15.5 9.12125 15.0135 10.3955 14.3467 11.6328C13.6722 12.8845 12.7802 14.1587 11.8965 15.2969C10.8933 16.5807 9.8259 17.8136 8.70117 18.9922L8.35254 18.6455L7.99902 18.999L7.64746 18.6455L7.29883 18.9922C7.04163 18.7229 6.78595 18.4521 6.53516 18.1768V18.1758C5.68853 17.2474 4.87708 16.2869 4.10352 15.2969C3.33113 14.301 2.55089 13.2002 1.91602 12.1035L1.65332 11.6338C0.9864 10.3954 0.5 9.12124 0.5 8C0.5 3.74248 3.86277 0.5 8 0.5ZM8 4.5C7.07174 4.5 6.18177 4.86901 5.52539 5.52539C4.86901 6.18177 4.5 7.07174 4.5 8C4.5 8.92826 4.86901 9.81823 5.52539 10.4746C6.14068 11.0899 6.9612 11.4531 7.82617 11.4961L8 11.5C8.92826 11.5 9.81823 11.131 10.4746 10.4746C11.131 9.81823 11.5 8.92826 11.5 8C11.5 7.07174 11.131 6.18177 10.4746 5.52539C9.81823 4.86901 8.92826 4.5 8 4.5Z" fill="#D9DE8B" stroke="black"/>
</svg>
